<?xml version="1.0" standalone="no"?><!DOCTYPE svg PUBLIC "-//W3C//DTD SVG 1.1//EN" "http://www.w3.org/Graphics/SVG/1.1/DTD/svg11.dtd"><svg t="1653121648833" class="icon" viewBox="0 0 3328 1024" version="1.1" xmlns="http://www.w3.org/2000/svg" p-id="8443" width="650" height="200" xmlns:xlink="http://www.w3.org/1999/xlink"><defs><style type="text/css"></style></defs><path d="M2675.2 339.2h-326.4V384h102.4v179.2h-121.6v51.2h121.6v288h51.2V614.4h128V896h102.4v-51.2H2688V339.2h-12.8z m-172.8 217.6V384h128v179.2h-128v-6.4zM1760 768h262.4v51.2h-262.4V768z m-185.6-89.6c0 89.6-6.4 153.6-25.6 211.2 0 6.4 0 6.4 6.4 6.4h51.2c19.2-83.2 19.2-147.2 19.2-198.4h70.4v147.2h-44.8c-6.4 0-6.4 0-6.4 6.4l12.8 44.8h89.6V339.2h-166.4l-6.4 339.2z m57.6-19.2V544h70.4v121.6h-70.4v-6.4z m64-275.2v115.2h-70.4V384h70.4z" fill="#56606F" p-id="8444"></path><path d="M2041.6 537.6h64v-44.8H1920c0-12.8 0-32 12.8-44.8h166.4v-44.8h-44.8c6.4-25.6 19.2-57.6 19.2-57.6 0-6.4 0-6.4-6.4-6.4h-38.4l-19.2 64h-57.6c6.4-25.6 6.4-51.2 12.8-83.2 0-6.4 0-6.4-6.4-6.4H1920c-6.4 32-6.4 64-19.2 89.6h-32l-19.2-64h-38.4c-6.4 0-6.4 0-6.4 6.4s6.4 32 19.2 57.6h-44.8V448h108.8c-6.4 12.8-6.4 32-19.2 44.8h-102.4v44.8h76.8c-32 44.8-64 64-76.8 70.4v51.2c0 6.4 6.4 6.4 6.4 0 19.2 6.4 32-12.8 44.8-25.6h185.6V704H1856l6.4-38.4c0-6.4 0-6.4-6.4-6.4h-44.8l-6.4 83.2c0 6.4 0 6.4 6.4 6.4h249.6v121.6h-108.8c-6.4 0-6.4 0-6.4 6.4l12.8 44.8H2112v-211.2h-57.6V601.6c25.6 19.2 44.8 38.4 70.4 44.8 6.4 6.4 6.4 6.4 6.4 0v-44.8c-25.6-6.4-57.6-25.6-89.6-64z m-57.6 0c6.4 19.2 25.6 38.4 38.4 51.2h-160c12.8-12.8 25.6-32 38.4-51.2H1984z m396.8 198.4l-89.6 70.4V492.8h-121.6v51.2H2240v300.8c-19.2 12.8-32 19.2-32 19.2l32 38.4 147.2-108.8-6.4-57.6c6.4 0 0 0 0 0z m-134.4-294.4h51.2c6.4 0 6.4-6.4 6.4-6.4L2227.2 320H2176l-6.4 6.4c6.4 6.4 76.8 115.2 76.8 115.2z m588.8-96h416v51.2h-416v-51.2z m153.6 256h326.4v-51.2h-531.2v51.2h147.2c-32 83.2-108.8 281.6-108.8 288s0 6.4 6.4 6.4h460.8c6.4 0 6.4-6.4 6.4-6.4l-70.4-179.2h-51.2c-6.4 0-6.4 6.4-6.4 6.4 0 6.4 51.2 128 51.2 128h-307.2c-6.4-6.4 76.8-243.2 76.8-243.2z" fill="#56606F" p-id="8445"></path><path d="M1228.8 832c-19.2 19.2-64 57.6-147.2 57.6H608c147.2-140.8 262.4-262.4 275.2-268.8 12.8-12.8 38.4-38.4 64-57.6 51.2-57.6 96-64 140.8-64 57.6 0 102.4 19.2 140.8 57.6 76.8 70.4 76.8 204.8 0 275.2z m96-364.8c-57.6-57.6-140.8-102.4-224-102.4-83.2 0-147.2 32-204.8 70.4-19.2 19.2-57.6 44.8-83.2 83.2-32 19.2-505.6 499.2-505.6 499.2h697.6c44.8 0 83.2 0 108.8-6.4 70.4-6.4 147.2-38.4 204.8-89.6 121.6-128 121.6-332.8 6.4-454.4z" fill="#00A3FF" p-id="8446"></path><path d="M537.6 435.2c-64-44.8-121.6-64-198.4-64-89.6 0-172.8 38.4-224 102.4-121.6 128-121.6 332.8 6.4 460.8 51.2 51.2 108.8 76.8 172.8 76.8l128-121.6H352c-70.4-6.4-115.2-32-147.2-57.6C128 755.2 128 633.6 204.8 550.4c38.4-38.4 76.8-57.6 140.8-57.6 38.4 0 76.8 6.4 128 57.6 19.2 25.6 76.8 64 96 89.6H576l76.8-89.6c-25.6-32-89.6-83.2-115.2-115.2" fill="#00C8DC" p-id="8447"></path><path d="M1120 288C1062.4 121.6 896 6.4 716.8 6.4 499.2 6.4 326.4 166.4 288 371.2c12.8 0 32-6.4 51.2-6.4s51.2 6.4 70.4 6.4c32-140.8 153.6-236.8 294.4-236.8 121.6 0 230.4 70.4 281.6 179.2 0 0 6.4 6.4 6.4 0 44.8-6.4 89.6-25.6 128-25.6 0 12.8 0 12.8 0 0" fill="#006EFF" p-id="8448"></path></svg>